<svg xmlns="http://www.w3.org/2000/svg" width="183" height="183" viewBox="0 0 183 183">
  <defs>
    <style>
      .cls-1 {
        fill: #5143d9;
      }

      .cls-1, .cls-2 {
        fill-rule: evenodd;
      }

      .cls-2 {
        fill: #fff;
      }
    </style>
  </defs>
  <path class="cls-1" d="M183,91.5A91.5,91.5,0,1,1,91.5,0,91.5,91.5,0,0,1,183,91.5Z"/>
  <path class="cls-2" d="M72.7,98.2h0a4.8,4.8,0,0,1-4.3-4.4l-0.3-6.4h71.8l-0.3,6.4a4.8,4.8,0,0,1-4.3,4.4h0a4.9,4.9,0,1,1-8.7-1.5h-54a4.9,4.9,0,1,1-8.7,1.5ZM111.1,66.6h14.2v12.8h7.6v-6h7.6V75h-4.2v6h3.8a3.8,3.8,0,1,0,7.6,0h3.8V66.6h7.6v12.8h7.6v-6h7.6V75h-4.2v6h3.8a3.8,3.8,0,1,0,7.6,0h3.8V66.6H177a4.3,4.3,0,0,0,3.8-4.4l0.3-6.4h-69.3l0.3,6.4a4.3,4.3,0,0,0,3.8,4.4ZM125.1,58.2h15.3v-6h-2.5v-2.8h-9.9V58.2H125.1Z"/>
  <text x="50%" y="90%" text-anchor="middle" fill="#fff" font-size="20" font-family="Arial" dy=".3em">EASY-way</text>
</svg>
