<?xml version="1.0" standalone="no"?>
<!DOCTYPE svg PUBLIC "-//W3C//DTD SVG 20010904//EN"
 "http://www.w3.org/TR/2001/REC-SVG-20010904/DTD/svg10.dtd">
<svg version="1.0" xmlns="http://www.w3.org/2000/svg"
 width="500.000000pt" height="500.000000pt" viewBox="0 0 500.000000 500.000000"
 preserveAspectRatio="xMidYMid meet">

<g transform="translate(0.000000,500.000000) scale(0.100000,-0.100000)"
fill="#000000" stroke="none">
<path d="M695 4835 c-231 -70 -393 -236 -446 -459 -15 -64 -15 -249 0 -254 6
-2 11 -18 11 -35 0 -18 9 -47 20 -65 12 -19 15 -30 8 -26 -10 6 -9 3 1 -9 7
-9 17 -15 21 -12 5 3 6 -3 4 -12 -3 -11 8 -32 27 -53 18 -19 31 -37 30 -40 -1
-2 5 -7 14 -10 9 -3 16 -9 15 -14 -4 -13 61 -77 71 -70 5 3 8 0 7 -7 -2 -7 7
-18 19 -24 13 -7 31 -19 40 -28 10 -8 43 -25 73 -36 30 -12 64 -26 74 -32 11
-7 77 -14 147 -17 101 -4 137 -1 180 12 189 60 334 190 407 365 13 31 30 94
38 141 13 74 13 94 0 170 -35 199 -135 350 -295 444 -101 59 -171 78 -301 82
-83 3 -129 0 -165 -11z m310 -455 c51 -49 57 -52 146 -68 107 -20 119 -31 119
-113 0 -39 -4 -49 -25 -63 -30 -20 -65 -21 -65 -2 0 8 -10 27 -23 42 -40 46
-136 34 -152 -18 -17 -54 -29 -58 -166 -58 l-128 0 -17 33 c-25 49 -45 67 -73
66 l-26 0 25 -12 c75 -35 80 -119 9 -146 -58 -22 -115 21 -107 80 3 16 1 29
-4 29 -4 0 -8 -6 -8 -14 0 -21 -17 -28 -50 -21 -37 8 -54 55 -48 131 6 68 20
84 72 84 37 0 48 6 91 50 l49 50 164 0 163 0 54 -50z m128 -213 c10 -6 20 -28
23 -48 8 -46 -21 -79 -66 -79 -34 0 -80 38 -80 65 0 20 19 57 34 67 18 12 71
9 89 -5z"/>
<path d="M655 4354 c-42 -45 -34 -55 43 -52 l67 3 0 35 c0 34 -1 35 -42 38
-36 3 -47 -1 -68 -24z"/>
<path d="M820 4365 c-7 -8 -10 -25 -6 -40 6 -24 9 -25 86 -25 44 0 80 4 80 8
0 4 -15 22 -33 40 -26 25 -41 32 -74 32 -24 0 -46 -6 -53 -15z"/>
<path d="M544 4178 l-19 -21 28 18 c28 18 33 25 19 25 -5 0 -17 -10 -28 -22z"/>
<path d="M584 4119 c-3 -6 -1 -16 5 -22 9 -9 14 -8 21 3 9 15 4 30 -10 30 -5
0 -12 -5 -16 -11z"/>
<path d="M1070 4130 c-18 -11 -4 -42 17 -38 10 2 19 10 21 19 4 19 -19 31 -38
19z"/>
<path d="M1674 4407 c-2 -7 -3 -67 -2 -133 l3 -119 58 -3 c35 -2 57 1 57 8 0
5 -20 10 -44 10 -47 0 -56 9 -56 59 0 38 17 51 68 51 26 0 41 4 37 10 -3 6
-26 10 -51 10 -51 0 -60 11 -50 65 7 34 8 35 51 35 25 0 45 5 45 10 0 15 -110
13 -116 -3z"/>
<path d="M2721 4379 c-12 -24 -21 -51 -21 -59 -1 -25 -27 -94 -38 -98 -5 -1
-12 7 -15 20 -35 149 -48 181 -63 165 -9 -8 52 -237 66 -251 15 -15 38 16 45
63 4 20 10 43 14 51 5 9 12 30 16 49 7 31 8 32 25 16 10 -9 22 -34 25 -56 4
-21 11 -41 16 -45 5 -3 9 -18 9 -33 0 -31 26 -60 39 -45 4 5 16 36 25 69 10
33 21 71 26 85 18 52 22 102 9 98 -7 -2 -22 -40 -32 -84 -29 -118 -26 -112
-48 -85 -10 13 -19 31 -19 40 -1 24 -36 121 -48 133 -8 8 -17 -1 -31 -33z"/>
<path d="M1903 4338 c2 -8 16 -12 33 -10 21 2 36 -4 49 -18 20 -22 20 -22 0
-37 -14 -11 -16 -17 -7 -20 23 -9 12 -83 -13 -83 -8 0 -16 -4 -19 -9 -3 -5 12
-8 34 -7 l40 1 0 82 c0 73 -2 83 -22 97 -27 20 -102 22 -95 4z"/>
<path d="M2097 4330 c-9 -11 -17 -26 -17 -34 0 -15 32 -46 47 -46 6 0 26 -14
44 -31 34 -32 34 -32 12 -42 -25 -11 -31 -27 -10 -27 18 0 47 32 47 52 0 19
-26 41 -67 57 -46 19 -57 35 -37 55 9 10 26 16 38 15 34 -2 46 0 46 11 0 6
-19 10 -43 10 -30 0 -48 -6 -60 -20z"/>
<path d="M2256 4342 c-4 -6 -2 -19 4 -29 5 -10 23 -53 40 -95 34 -90 30 -122
-20 -139 -31 -11 -32 -29 -1 -29 31 0 59 42 105 163 25 66 46 121 46 123 0 2
-6 4 -13 4 -7 0 -24 -29 -36 -65 -28 -79 -47 -99 -57 -58 -4 15 -10 33 -14 38
-4 6 -10 21 -13 35 -9 36 -32 66 -41 52z"/>
<path d="M2987 4344 c-13 -13 5 -24 28 -18 27 7 65 -11 65 -30 0 -8 -7 -19
-15 -26 -14 -11 -13 -14 1 -25 22 -16 11 -65 -16 -72 -33 -9 -22 -24 12 -18
17 3 35 8 40 11 5 3 7 40 5 82 -4 58 -9 79 -23 89 -18 13 -86 18 -97 7z"/>
<path d="M3156 4342 c-4 -6 -2 -19 4 -29 5 -10 23 -53 40 -95 34 -90 30 -121
-20 -142 -31 -12 -31 -26 0 -26 32 0 59 41 104 158 9 23 24 60 33 82 12 30 13
44 5 52 -8 8 -12 8 -16 -3 -23 -72 -42 -117 -57 -133 -17 -19 -18 -19 -25 10
-4 16 -10 34 -14 39 -4 6 -10 21 -13 35 -9 36 -32 66 -41 52z"/>
<path d="M2475 4250 c-8 -12 17 -23 41 -18 10 1 19 9 22 16 5 15 -54 17 -63 2z"/>
<path d="M1869 4223 c-14 -36 2 -69 35 -75 31 -6 34 2 6 20 -26 16 -25 36 2
62 l22 20 -27 0 c-21 0 -30 -7 -38 -27z"/>
<path d="M2962 4238 c-7 -7 -12 -24 -12 -38 0 -31 17 -50 44 -50 18 0 18 1 3
18 -21 23 -22 51 -2 58 8 4 15 10 15 15 0 13 -34 11 -48 -3z"/>
<path d="M2080 4160 c0 -5 9 -10 21 -10 11 0 17 5 14 10 -3 6 -13 10 -21 10
-8 0 -14 -4 -14 -10z"/>
</g>
</svg>